<svg width="94" height="142" viewBox="0 0 94 142" fill="none" xmlns="http://www.w3.org/2000/svg">
<path d="M30.123 84.643L30.2261 83.6483L30.123 84.643ZM21.4526 28.286L21.6505 29.2662L21.4526 28.286ZM86.1072 141.778C86.5371 142.125 87.1667 142.058 87.5134 141.628L93.1632 134.622C93.5099 134.192 93.4424 133.563 93.0125 133.216C92.5826 132.869 91.953 132.937 91.6063 133.367L86.5843 139.594L80.357 134.572C79.9271 134.225 79.2976 134.293 78.9509 134.722C78.6042 135.152 78.6716 135.782 79.1015 136.129L86.1072 141.778ZM68.3097 4.09626C68.6342 4.54313 69.2596 4.64229 69.7065 4.31775C70.1533 3.9932 70.2525 3.36785 69.9279 2.92098L68.3097 4.09626ZM75.2834 12.5295C75.0634 12.0229 74.4743 11.7907 73.9678 12.0107C73.4612 12.2308 73.229 12.8198 73.449 13.3263L75.2834 12.5295ZM75.7115 19.2939C75.8838 19.8186 76.4488 20.1043 76.9736 19.932C77.4983 19.7597 77.7839 19.1946 77.6116 18.6699L75.7115 19.2939ZM80.2907 29.2659C80.1923 28.7225 79.6719 28.3617 79.1285 28.4601C78.585 28.5585 78.2243 29.0789 78.3227 29.6223L80.2907 29.2659ZM79.1995 35.9558C79.252 36.5056 79.7402 36.9087 80.29 36.8562C80.8398 36.8037 81.2429 36.3155 81.1904 35.7657L79.1995 35.9558ZM81.3973 46.7095C81.4317 46.1583 81.0127 45.6835 80.4615 45.6491C79.9103 45.6147 79.4356 46.0337 79.4012 46.5849L81.3973 46.7095ZM78.6564 52.9009C78.56 53.4447 78.9228 53.9637 79.4666 54.0601C80.0104 54.1565 80.5293 53.7937 80.6257 53.2499L78.6564 52.9009ZM77.5007 63.8031C77.7215 63.2968 77.4901 62.7075 76.9839 62.4867C76.4776 62.2659 75.8883 62.4973 75.6675 63.0035L77.5007 63.8031ZM72.6688 68.5388C72.3635 68.9991 72.4891 69.6196 72.9494 69.925C73.4096 70.2303 74.0302 70.1047 74.3355 69.6444L72.6688 68.5388ZM66.8125 77.7674C67.249 77.4291 67.3287 76.801 66.9904 76.3644C66.6522 75.9278 66.024 75.8482 65.5875 76.1864L66.8125 77.7674ZM60.2915 79.5294C59.7991 79.7795 59.6026 80.3814 59.8526 80.8738C60.1027 81.3662 60.7046 81.5627 61.197 81.3127L60.2915 79.5294ZM50.768 84.9099C51.3085 84.7964 51.6546 84.2662 51.541 83.7257C51.4275 83.1852 50.8973 82.8391 50.3568 82.9526L50.768 84.9099ZM44.0964 83.8645C43.5462 83.9122 43.1389 84.3969 43.1866 84.9471C43.2343 85.4973 43.719 85.9047 44.2692 85.857L44.0964 83.8645ZM33.3417 85.9207C33.8927 85.9572 34.3691 85.5401 34.4056 84.989C34.442 84.4379 34.0249 83.9616 33.4738 83.9251L33.3417 85.9207ZM27.2007 83.2453C26.6557 83.1557 26.1414 83.525 26.0518 84.07C25.9623 84.6149 26.3316 85.1293 26.8765 85.2188L27.2007 83.2453ZM16.7657 82.2839C17.2704 82.5082 17.8614 82.2809 18.0857 81.7763C18.3101 81.2716 18.0828 80.6806 17.5781 80.4563L16.7657 82.2839ZM12.393 77.51C11.944 77.1883 11.3193 77.2915 10.9977 77.7405C10.676 78.1894 10.7792 78.8141 11.2282 79.1358L12.393 77.51ZM3.96094 71.3653C4.24844 71.8368 4.86377 71.9861 5.33533 71.6986C5.80688 71.4111 5.95609 70.7957 5.6686 70.3242L3.96094 71.3653ZM3.22547 64.923C3.05982 64.3961 2.49843 64.1033 1.97157 64.269C1.44472 64.4346 1.1519 64.996 1.31755 65.5228L3.22547 64.923ZM0.0483388 54.9886C0.0179153 55.54 0.440288 56.0117 0.991734 56.0422C1.54318 56.0726 2.01488 55.6502 2.0453 55.0988L0.0483388 54.9886ZM2.95421 49.1845C3.08983 48.6491 2.76577 48.1052 2.23039 47.9695C1.69502 47.8339 1.15107 48.158 1.01545 48.6934L2.95421 49.1845ZM5.20179 38.9701C4.90436 39.4355 5.04048 40.0538 5.50583 40.3513C5.97118 40.6487 6.58954 40.5126 6.88698 40.0472L5.20179 38.9701ZM10.6056 35.3933C10.9958 35.0025 10.9952 34.3693 10.6044 33.9791C10.2135 33.5889 9.58037 33.5894 9.19017 33.9803L10.6056 35.3933ZM18.1349 28.1811C17.6156 28.3691 17.3471 28.9425 17.5351 29.4618C17.7231 29.9811 18.2965 30.2497 18.8158 30.0616L18.1349 28.1811ZM24.4402 28.8868C24.9911 28.8478 25.406 28.3696 25.367 27.8187C25.328 27.2678 24.8497 26.8528 24.2988 26.8918L24.4402 28.8868ZM34.3472 28.2688C33.8247 28.0901 33.2562 28.3689 33.0775 28.8915C32.8988 29.4141 33.1776 29.9825 33.7002 30.1612L34.3472 28.2688ZM38.8841 32.5173C39.3645 32.7898 39.9748 32.6213 40.2473 32.1409C40.5198 31.6605 40.3512 31.0502 39.8708 30.7777L38.8841 32.5173ZM47.937 36.7242C47.5289 36.3521 46.8964 36.3812 46.5243 36.7893C46.1521 37.1974 46.1813 37.8299 46.5893 38.202L47.937 36.7242ZM50.6555 42.3016C51.0258 42.7114 51.6582 42.7434 52.0679 42.3731C52.4777 42.0029 52.5097 41.3705 52.1394 40.9607L50.6555 42.3016ZM58.3102 48.7495C57.9931 48.2973 57.3695 48.1878 56.9173 48.505C56.4652 48.8221 56.3557 49.4457 56.6728 49.8979L58.3102 48.7495ZM59.8711 54.7615C60.1614 55.2313 60.7776 55.3769 61.2474 55.0867C61.7173 54.7964 61.8629 54.1802 61.5727 53.7104L59.8711 54.7615ZM66.4191 62.3394C66.1675 61.8478 65.565 61.6532 65.0733 61.9049C64.5817 62.1565 64.3871 62.759 64.6388 63.2507L66.4191 62.3394ZM67.1988 68.5198C67.4302 69.0213 68.0243 69.2403 68.5258 69.009C69.0273 68.7776 69.2463 68.1835 69.0149 67.682L67.1988 68.5198ZM72.876 76.7677C72.6747 76.2534 72.0947 75.9997 71.5803 76.2009C71.066 76.4022 70.8123 76.9823 71.0135 77.4966L72.876 76.7677ZM73.058 82.977C73.2429 83.4974 73.8147 83.7693 74.3351 83.5843C74.8555 83.3993 75.1274 82.8275 74.9424 82.3071L73.058 82.977ZM78.0189 91.6755C77.8589 91.1469 77.3007 90.8481 76.7721 91.0082C76.2435 91.1682 75.9447 91.7265 76.1048 92.255L78.0189 91.6755ZM77.7298 97.8892C77.876 98.4218 78.4262 98.7351 78.9588 98.5889C79.4914 98.4427 79.8046 97.8924 79.6584 97.3599L77.7298 97.8892ZM82.0682 106.9C81.9436 106.362 81.4064 106.027 80.8684 106.151C80.3303 106.276 79.9951 106.813 80.1197 107.351L82.0682 106.9ZM81.3774 113.079C81.4897 113.62 82.0192 113.967 82.5599 113.855C83.1007 113.743 83.4479 113.213 83.3356 112.672L81.3774 113.079ZM85.1661 122.358C85.0731 121.813 84.5564 121.447 84.012 121.54C83.4676 121.633 83.1016 122.15 83.1946 122.694L85.1661 122.358ZM84.1235 128.492C84.2053 129.038 84.7144 129.414 85.2606 129.333C85.8068 129.251 86.1832 128.742 86.1014 128.195L84.1235 128.492ZM87.399 137.943C87.3349 137.394 86.8383 137.001 86.2897 137.065C85.7412 137.129 85.3484 137.626 85.4125 138.174L87.399 137.943ZM66.356 1.66896C67.0151 2.40132 67.6679 3.21251 68.3097 4.09626L69.9279 2.92098C69.2496 1.98697 68.5533 1.12068 67.8426 0.331035L66.356 1.66896ZM73.449 13.3263C74.2677 15.2108 75.0268 17.209 75.7115 19.2939L77.6116 18.6699C76.9086 16.529 76.1277 14.473 75.2834 12.5295L73.449 13.3263ZM78.3227 29.6223C78.7 31.7057 78.9959 33.8237 79.1995 35.9558L81.1904 35.7657C80.9813 33.5761 80.6776 31.4026 80.2907 29.2659L78.3227 29.6223ZM79.4012 46.5849C79.2679 48.7193 79.0232 50.8315 78.6564 52.9009L80.6257 53.2499C81.0066 51.1011 81.2597 48.9137 81.3973 46.7095L79.4012 46.5849ZM75.6675 63.0035C74.8224 64.941 73.8267 66.7934 72.6688 68.5388L74.3355 69.6444C75.5619 67.7958 76.6122 65.8401 77.5007 63.8031L75.6675 63.0035ZM65.5875 76.1864C63.9862 77.4272 62.2246 78.5478 60.2915 79.5294L61.197 81.3127C63.2413 80.2746 65.1101 79.0865 66.8125 77.7674L65.5875 76.1864ZM50.3568 82.9526C48.392 83.3654 46.307 83.6728 44.0964 83.8645L44.2692 85.857C46.5553 85.6587 48.72 85.3402 50.768 84.9099L50.3568 82.9526ZM33.4738 83.9251C32.4136 83.8549 31.3312 83.7629 30.2261 83.6483L30.0199 85.6377C31.1489 85.7547 32.2561 85.8488 33.3417 85.9207L33.4738 83.9251ZM30.2261 83.6483C29.1847 83.5404 28.1764 83.4055 27.2007 83.2453L26.8765 85.2188C27.8926 85.3857 28.9403 85.5257 30.0199 85.6377L30.2261 83.6483ZM17.5781 80.4563C15.6522 79.6002 13.9278 78.6097 12.393 77.51L11.2282 79.1358C12.8779 80.3178 14.721 81.3749 16.7657 82.2839L17.5781 80.4563ZM5.6686 70.3242C4.62393 68.6107 3.81481 66.7974 3.22547 64.923L1.31755 65.5228C1.95344 67.5453 2.82835 69.5076 3.96094 71.3653L5.6686 70.3242ZM2.0453 55.0988C2.15524 53.106 2.46378 51.1205 2.95421 49.1845L1.01545 48.6934C0.494262 50.7508 0.165565 52.8638 0.0483388 54.9886L2.0453 55.0988ZM6.88698 40.0472C7.97324 38.3477 9.21969 36.7815 10.6056 35.3933L9.19017 33.9803C7.69696 35.476 6.36126 37.1561 5.20179 38.9701L6.88698 40.0472ZM18.8158 30.0616C19.7337 29.7293 20.6793 29.4622 21.6505 29.2662L21.2548 27.3057C20.1849 27.5217 19.1439 27.8158 18.1349 28.1811L18.8158 30.0616ZM21.6505 29.2662C22.5788 29.0788 23.5089 28.9528 24.4402 28.8868L24.2988 26.8918C23.2819 26.9639 22.2668 27.1015 21.2548 27.3057L21.6505 29.2662ZM33.7002 30.1612C35.4298 30.7526 37.1599 31.5393 38.8841 32.5173L39.8708 30.7777C38.0477 29.7436 36.2043 28.9037 34.3472 28.2688L33.7002 30.1612ZM46.5893 38.202C47.958 39.4501 49.3146 40.8178 50.6555 42.3016L52.1394 40.9607C50.7586 39.4327 49.3568 38.0189 47.937 36.7242L46.5893 38.202ZM56.6728 49.8979C57.7554 51.4416 58.8222 53.0635 59.8711 54.7615L61.5727 53.7104C60.5044 51.9811 59.4163 50.3266 58.3102 48.7495L56.6728 49.8979ZM64.6388 63.2507C65.5094 64.9516 66.3632 66.7085 67.1988 68.5198L69.0149 67.682C68.1683 65.8469 67.3026 64.0654 66.4191 62.3394L64.6388 63.2507ZM71.0135 77.4966C71.7121 79.2817 72.3939 81.1089 73.058 82.977L74.9424 82.3071C74.2716 80.4198 73.5824 78.5729 72.876 76.7677L71.0135 77.4966ZM76.1048 92.255C76.6634 94.1002 77.2054 95.9786 77.7298 97.8892L79.6584 97.3599C79.1295 95.4327 78.5827 93.5376 78.0189 91.6755L76.1048 92.255ZM80.1197 107.351C80.5557 109.234 80.9752 111.143 81.3774 113.079L83.3356 112.672C82.9303 110.722 82.5076 108.797 82.0682 106.9L80.1197 107.351ZM83.1946 122.694C83.5208 124.605 83.8306 126.537 84.1235 128.492L86.1014 128.195C85.8066 126.228 85.4946 124.282 85.1661 122.358L83.1946 122.694ZM85.4125 138.174C85.526 139.147 85.6355 140.124 85.7407 141.107L87.7293 140.893C87.6234 139.905 87.5133 138.921 87.399 137.943L85.4125 138.174Z" fill="#2EE9FA"/>
</svg>
