<svg width="201" height="51" viewBox="0 0 201 51" fill="none" xmlns="http://www.w3.org/2000/svg">
<g clip-path="url(#clip0_212_391)">
<path d="M31.0673 50.4958C9.31834 50.4958 0 42.1652 0 24.8221V1.68152C0.000809731 1.23661 0.176634 0.810158 0.488969 0.495561C0.801304 0.180965 1.22469 0.00386735 1.6664 0.00305176H16.6915C17.1335 0.00305176 17.5574 0.179894 17.8699 0.494667C18.1824 0.80944 18.3579 1.23636 18.3579 1.68152V24.8221C18.3579 30.1537 20.2663 34.8497 31.0673 34.8497C41.8682 34.8497 43.7766 30.0827 43.7766 24.8221V1.68152C43.7774 1.23661 43.9533 0.810158 44.2656 0.495561C44.5779 0.180965 45.0013 0.00386735 45.443 0.00305176H60.4682C60.9101 0.00305176 61.334 0.179894 61.6465 0.494667C61.959 0.80944 62.1346 1.23636 62.1346 1.68152V24.8221C62.1346 42.1035 52.7458 50.4958 31.0673 50.4958Z" fill="white"/>
<path d="M86.2279 24.1415L66.4259 2.88595C66.199 2.64279 66.0477 2.33725 65.9908 2.00742C65.9338 1.67758 65.9737 1.33802 66.1054 1.03103C66.2372 0.724033 66.4551 0.463175 66.7318 0.28096C67.0086 0.098744 67.3321 0.00322648 67.6619 0.00629032H87.2137C87.4529 0.00636875 87.6893 0.0581607 87.9072 0.158224C88.1251 0.258287 88.3196 0.404318 88.4776 0.586607L99.25 13.0118C99.4078 13.1939 99.602 13.3398 99.8196 13.4397C100.037 13.5397 100.273 13.5914 100.512 13.5914C100.751 13.5914 100.987 13.5397 101.205 13.4397C101.423 13.3398 101.617 13.1939 101.775 13.0118L112.532 0.580337C112.69 0.398673 112.885 0.253065 113.103 0.153054C113.32 0.053044 113.557 0.000887265 113.796 1.04195e-05H133.35C133.68 -0.00305343 134.004 0.0924737 134.281 0.274689C134.557 0.456905 134.775 0.717753 134.907 1.02475C135.039 1.33174 135.079 1.67131 135.022 2.00115C134.965 2.33098 134.813 2.63651 134.587 2.87967L114.784 24.1352C114.49 24.4525 114.325 24.8722 114.325 25.3084C114.325 25.7446 114.49 26.1643 114.784 26.4816L134.587 47.7341C134.813 47.9772 134.965 48.2828 135.022 48.6126C135.079 48.9424 135.039 49.282 134.907 49.589C134.775 49.896 134.557 50.1568 134.281 50.3391C134.004 50.5213 133.68 50.6168 133.35 50.6137H113.796C113.557 50.6134 113.321 50.5619 113.103 50.4624C112.885 50.3629 112.69 50.2178 112.532 50.0365L101.762 37.6082C101.605 37.4261 101.41 37.2802 101.193 37.1803C100.975 37.0803 100.739 37.0287 100.5 37.0287C100.261 37.0287 100.025 37.0803 99.8073 37.1803C99.5896 37.2802 99.3954 37.4261 99.2377 37.6082L88.4652 50.0365C88.3071 50.2184 88.1125 50.364 87.8946 50.4635C87.6766 50.563 87.4403 50.6142 87.2013 50.6137H67.6496C67.3197 50.6168 66.9962 50.5213 66.7195 50.3391C66.4427 50.1568 66.2248 49.896 66.0931 49.589C65.9613 49.282 65.9214 48.9424 65.9784 48.6126C66.0354 48.2828 66.1867 47.9772 66.4135 47.7341L86.2155 26.4816C86.5117 26.167 86.678 25.7492 86.6803 25.3141C86.6826 24.8789 86.5207 24.4594 86.2279 24.1415V24.1415Z" fill="white"/>
<path d="M132.001 26.5686C132.001 27.7349 133.195 28.1792 136.706 28.1792C140.106 28.1792 140.657 27.957 140.657 27.1055C140.657 26.2539 140.143 26.2169 136.338 25.9762C131.578 25.6985 129.247 25.3283 129.247 22.6995C129.247 19.8486 132.552 19.3055 136.412 19.3055C140.492 19.3055 143.457 19.8424 143.457 22.8414H140.29C140.29 21.9343 139.15 21.7122 136.228 21.7122C133.25 21.7122 132.405 21.9343 132.405 22.5637C132.405 23.2487 132.975 23.3598 136.694 23.6375C140.921 23.946 143.803 24.0632 143.803 26.9697C143.803 30.0397 141.046 30.5766 136.877 30.5766C132.708 30.5766 128.849 30.0397 128.849 26.5655L132.001 26.5686Z" fill="white"/>
<path d="M160.078 24.3655L160.042 30.3975H156.883V25.5564C156.883 23.2424 156.112 22.0391 153.514 22.0391C151.4 22.0391 149.121 23.1313 148.147 24.2791V30.3851H145.013V15.5751H148.153V21.385C149.96 19.9905 152.182 19.2531 154.457 19.2931C157.343 19.3116 160.042 20.3483 160.078 24.3655Z" fill="white"/>
<path d="M161.154 24.9579C161.154 20.9469 164.165 19.3116 168.649 19.3116C173.134 19.3116 176.163 20.9284 176.163 24.9579C176.163 28.9875 173.134 30.5826 168.668 30.5826C164.201 30.5826 161.154 28.9505 161.154 24.9579ZM172.987 24.9579C172.987 22.6809 171.553 21.9589 168.649 21.9589C165.745 21.9589 164.293 22.6809 164.293 24.9579C164.293 27.235 165.727 27.9385 168.649 27.9385C171.572 27.9385 172.999 27.2165 172.999 24.9579H172.987Z" fill="white"/>
<path d="M188.965 19.6943V22.3416C188.065 22.0995 187.139 21.9751 186.208 21.9713C184.148 21.9315 182.137 22.6046 180.51 23.8781V30.4099H177.355V19.4968H180.495V21.3481C182.02 19.9829 184.005 19.2547 186.045 19.3117C187.031 19.3106 188.012 19.4392 188.965 19.6943V19.6943Z" fill="white"/>
<path d="M195.875 22.1441V25.2912C195.875 27.4016 196.28 27.9385 198.191 27.9385C199.132 27.9606 200.073 27.8986 201.003 27.7533V30.305C199.782 30.5052 198.546 30.5981 197.309 30.5827C194.515 30.5827 192.714 29.5274 192.714 27.1239V22.1441H189.868V19.4968H192.705V17.2413L195.866 16.3342V19.4968H200.994V22.1441H195.875Z" fill="white"/>
</g>
<defs>
<clipPath id="clip0_212_391">
<rect width="201" height="50.4928" fill="white"/>
</clipPath>
</defs>
</svg>
