<svg width="207" height="52" viewBox="0 0 207 52" fill="none" xmlns="http://www.w3.org/2000/svg">
<g clip-path="url(#clip0_145_73)">
<path d="M31.9947 52.0032C9.5965 52.0032 0 43.4239 0 25.5631V1.73174C0.000833902 1.27356 0.181907 0.834372 0.503565 0.510385C0.825223 0.186398 1.26125 0.00401377 1.71614 0.00317383H17.1898C17.6449 0.00317383 18.0815 0.185295 18.4033 0.509464C18.7251 0.833633 18.9059 1.2733 18.9059 1.73174V25.5631C18.9059 31.0538 20.8713 35.89 31.9947 35.89C43.118 35.89 45.0834 30.9807 45.0834 25.5631V1.73174C45.0842 1.27356 45.2653 0.834372 45.587 0.510385C45.9086 0.186398 46.3446 0.00401377 46.7995 0.00317383H62.2732C62.7283 0.00317383 63.1648 0.185295 63.4867 0.509464C63.8085 0.833633 63.9893 1.2733 63.9893 1.73174V25.5631C63.9893 43.3603 54.3203 52.0032 31.9947 52.0032Z" fill="#2EE9FA"/>
<path d="M88.8019 24.8622L68.4087 2.97216C68.1751 2.72174 68.0193 2.40709 67.9606 2.0674C67.9019 1.72772 67.943 1.37802 68.0787 1.06187C68.2144 0.745708 68.4388 0.477064 68.7238 0.289409C69.0089 0.101754 69.342 0.00338565 69.6817 0.00654095H89.8171C90.0634 0.00662171 90.3069 0.0599597 90.5313 0.16301C90.7557 0.26606 90.956 0.41645 91.1187 0.604181L102.213 13.4003C102.375 13.5878 102.575 13.7381 102.799 13.841C103.024 13.9439 103.267 13.9971 103.513 13.9971C103.759 13.9971 104.002 13.9439 104.226 13.841C104.45 13.7381 104.65 13.5878 104.813 13.4003L115.891 0.597723C116.054 0.410636 116.254 0.260682 116.479 0.157686C116.703 0.0546903 116.946 0.000976608 117.192 7.35877e-05H137.331C137.671 -0.00308172 138.004 0.095297 138.289 0.282952C138.574 0.470607 138.798 0.739241 138.934 1.0554C139.07 1.37155 139.111 1.72126 139.052 2.06094C138.993 2.40063 138.838 2.71527 138.604 2.9657L118.211 24.8558C117.907 25.1825 117.738 25.6147 117.738 26.064C117.738 26.5132 117.907 26.9454 118.211 27.2722L138.604 49.159C138.838 49.4094 138.993 49.7241 139.052 50.0638C139.111 50.4035 139.07 50.7532 138.934 51.0693C138.798 51.3855 138.574 51.6541 138.289 51.8418C138.004 52.0294 137.671 52.1278 137.331 52.1246H117.192C116.947 52.1244 116.703 52.0712 116.479 51.9688C116.255 51.8664 116.054 51.7169 115.891 51.5302L104.8 38.7309C104.638 38.5433 104.438 38.3931 104.213 38.2902C103.989 38.1873 103.746 38.1341 103.5 38.1341C103.254 38.1341 103.011 38.1873 102.787 38.2902C102.562 38.3931 102.362 38.5433 102.2 38.7309L91.106 51.5302C90.9431 51.7175 90.7427 51.8674 90.5183 51.9699C90.2939 52.0724 90.0505 52.1252 89.8043 52.1246H69.669C69.3292 52.1278 68.9961 52.0294 68.7111 51.8418C68.4261 51.6541 68.2017 51.3855 68.066 51.0693C67.9303 50.7532 67.8892 50.4035 67.9479 50.0638C68.0066 49.7241 68.1624 49.4094 68.396 49.159L88.7891 27.2722C89.0941 26.9482 89.2654 26.5179 89.2677 26.0698C89.2701 25.6216 89.1034 25.1895 88.8019 24.8622V24.8622Z" fill="#2EE9FA"/>
<path d="M135.941 27.3617C135.941 28.5628 137.171 29.0204 140.787 29.0204C144.288 29.0204 144.856 28.7916 144.856 27.9146C144.856 27.0376 144.326 26.9995 140.408 26.7516C135.506 26.4656 133.105 26.0843 133.105 23.3771C133.105 20.4411 136.509 19.8818 140.484 19.8818C144.686 19.8818 147.739 20.4347 147.739 23.5233H144.478C144.478 22.5891 143.304 22.3603 140.294 22.3603C137.228 22.3603 136.357 22.5891 136.357 23.2373C136.357 23.9427 136.944 24.0571 140.774 24.3431C145.127 24.6608 148.096 24.7816 148.096 27.7748C148.096 30.9364 145.257 31.4893 140.963 31.4893C136.67 31.4893 132.695 30.9364 132.695 27.3585L135.941 27.3617Z" fill="white"/>
<path d="M164.857 25.0929L164.819 31.3049H161.567V26.3194C161.567 23.9363 160.772 22.6971 158.096 22.6971C155.92 22.6971 153.573 23.8219 152.57 25.0039V31.2922H149.342V16.0402H152.576V22.0234C154.436 20.5873 156.725 19.8279 159.068 19.8691C162.04 19.8881 164.819 20.9558 164.857 25.0929Z" fill="white"/>
<path d="M165.964 25.703C165.964 21.5723 169.065 19.8882 173.683 19.8882C178.302 19.8882 181.422 21.5532 181.422 25.703C181.422 29.8529 178.302 31.4956 173.702 31.4956C169.103 31.4956 165.964 29.8147 165.964 25.703ZM178.15 25.703C178.15 23.358 176.674 22.6145 173.683 22.6145C170.693 22.6145 169.198 23.358 169.198 25.703C169.198 28.048 170.674 28.7725 173.683 28.7725C176.693 28.7725 178.163 28.029 178.163 25.703H178.15Z" fill="white"/>
<path d="M194.605 20.2821V23.0084C193.679 22.7591 192.725 22.631 191.766 22.6271C189.645 22.5861 187.574 23.2793 185.899 24.5908V31.3176H182.649V20.0787H185.883V21.9852C187.454 20.5793 189.498 19.8294 191.599 19.8881C192.614 19.8869 193.625 20.0194 194.605 20.2821V20.2821Z" fill="white"/>
<path d="M201.722 22.8052V26.0462C201.722 28.2196 202.139 28.7725 204.107 28.7725C205.076 28.7953 206.045 28.7315 207.003 28.5819V31.2097C205.746 31.4159 204.473 31.5116 203.199 31.4957C200.322 31.4957 198.467 30.4089 198.467 27.9337V22.8052H195.536V20.0789H198.457V17.7561L201.713 16.8219V20.0789H206.994V22.8052H201.722Z" fill="white"/>
</g>
<defs>
<clipPath id="clip0_145_73">
<rect width="207" height="52" fill="white"/>
</clipPath>
</defs>
</svg>
